<?xml version="1.0" standalone="no"?>
<!DOCTYPE svg PUBLIC "-//W3C//DTD SVG 20010904//EN"
 "http://www.w3.org/TR/2001/REC-SVG-20010904/DTD/svg10.dtd">

<svg version="1.0" xmlns="http://www.w3.org/2000/svg"
 width="350.000000pt" height="350.000000pt" viewBox="0 0 350.000000 350.000000"
 preserveAspectRatio="xMidYMid meet">
 
<linearGradient id="brandGradient" x2="1" y2="1">
<stop offset="0%" stop-color="#2F00FF"/>
<stop offset="100%" stop-color="#D9009D"/>
</linearGradient>

<g transform="translate(0.000000,350.000000) scale(0.100000,-0.100000)"
fill="url(#brandGradient) #2F00FF" stroke="none">
<path d="M1591 3490 c-440 -42 -849 -247 -1137 -569 -319 -356 -481 -821 -446
-1279 32 -415 179 -765 444 -1060 217 -242 497 -418 802 -507 314 -90 669 -90
981 0 692 201 1205 840 1253 1562 15 220 -15 462 -79 653 -41 125 -99 260
-111 260 -9 0 -354 -177 -387 -199 -10 -7 -6 -26 24 -100 144 -361 130 -743
-39 -1079 -181 -358 -529 -618 -923 -687 -114 -20 -335 -20 -449 0 -458 80
-844 414 -993 860 -85 253 -86 554 -5 802 118 360 396 656 747 798 302 122
647 122 954 -1 35 -14 66 -24 68 -22 7 6 185 388 188 401 6 29 -317 133 -483
156 -116 15 -305 20 -409 11z"/>
<path d="M2645 2997 c-143 -57 -207 -190 -159 -330 34 -99 126 -162 239 -162
82 0 130 20 186 77 117 120 77 329 -76 403 -48 23 -148 29 -190 12z"/>
<path d="M1565 2606 c-327 -75 -581 -318 -671 -646 -28 -99 -25 -317 4 -430
84 -314 328 -554 647 -635 107 -27 305 -25 415 5 306 82 545 319 632 625 31
111 31 321 -1 440 -81 301 -309 536 -609 627 -87 26 -327 34 -417 14z m322
-466 c106 -37 185 -110 237 -220 29 -60 31 -73 31 -175 0 -104 -2 -114 -33
-177 -42 -87 -138 -177 -219 -208 -118 -46 -264 -35 -368 26 -47 27 -123 104
-153 154 -63 107 -69 266 -14 383 91 195 313 288 519 217z"/>
</g>
</svg>
